<svg width="67" height="62" viewBox="0 0 67 62" fill="none" xmlns="http://www.w3.org/2000/svg">
<path d="M66.6215 16.7537C66.2301 16.2258 65.5925 15.9099 64.9128 15.9099H20.2537L16.8721 4.83275C15.5464 0.469879 12.3963 0 11.1043 0H2.08955C0.9343 0 0 0.88977 0 1.98549C0 3.0812 0.936404 3.97098 2.08955 3.97098H11.1022C11.3884 3.97098 12.2574 3.97098 12.8508 5.91847L24.4812 46.53C24.7337 47.3858 25.5565 47.9776 26.4929 47.9776H54.8985C55.7802 47.9776 56.5672 47.4538 56.8639 46.664L66.8761 18.5652C67.1075 17.9574 67.0107 17.2795 66.6193 16.7517L66.6215 16.7537ZM53.4297 44.0086H28.0816L21.43 19.8829H61.9436L53.4297 44.0086ZM49.2843 52.0026C46.3783 52.0026 44.0236 54.24 44.0236 57.0013C44.0236 59.7626 46.3783 62 49.2843 62C52.1903 62 54.545 59.7626 54.545 57.0013C54.545 54.24 52.1903 52.0026 49.2843 52.0026ZM30.3458 52.0026C27.4398 52.0026 25.0851 54.24 25.0851 57.0013C25.0851 59.7626 27.4398 62 30.3458 62C33.2518 62 35.6065 59.7626 35.6065 57.0013C35.6065 54.24 33.2518 52.0026 30.3458 52.0026Z" fill="#FA4234"/>
</svg>
