<svg width="67" height="67" viewBox="0 0 67 67" fill="none" xmlns="http://www.w3.org/2000/svg">
<path d="M56.6677 56.6145C50.4049 50.8353 42.2234 47.5805 33.7021 47.4782C25.1809 47.3758 16.9237 50.4332 10.5239 56.0603L7.62793 52.7745C14.8395 46.4313 24.1449 42.9838 33.7485 43.097C43.3522 43.2103 52.5737 46.8764 59.6337 53.3879L56.6677 56.6145Z" fill="#FA4234"/>
<path d="M33.2852 19.1715C35.4341 19.1715 37.5347 19.8088 39.3215 21.0026C41.1082 22.1965 42.5009 23.8934 43.3233 25.8788C44.1456 27.8641 44.3607 30.0487 43.9415 32.1563C43.5223 34.2639 42.4875 36.1999 40.968 37.7194C39.4485 39.2389 37.5125 40.2738 35.4049 40.693C33.2973 41.1122 31.1127 40.897 29.1274 40.0747C27.142 39.2523 25.4451 37.8597 24.2512 36.073C23.0573 34.2862 22.4202 32.1856 22.4202 30.0366C22.4237 27.1561 23.5694 24.3945 25.6063 22.3577C27.6431 20.3209 30.4047 19.175 33.2852 19.1715ZM33.2852 14.7904C30.2698 14.7904 27.3221 15.6846 24.8149 17.3599C22.3077 19.0352 20.3536 21.4163 19.1996 24.2022C18.0457 26.988 17.7437 30.0536 18.332 33.011C18.9203 35.9685 20.3723 38.6851 22.5045 40.8173C24.6368 42.9495 27.3534 44.4016 30.3109 44.9899C33.2684 45.5782 36.3339 45.2762 39.1197 44.1223C41.9056 42.9683 44.2867 41.0142 45.962 38.507C47.6373 35.9998 48.5314 33.0521 48.5314 30.0366C48.5314 25.9931 46.9251 22.1152 44.0658 19.256C41.2066 16.3967 37.3287 14.7904 33.2852 14.7904Z" fill="#FA4234"/>
<path d="M33.5 4.38109C39.2592 4.38109 44.889 6.0889 49.6776 9.28852C54.4662 12.4881 58.1984 17.0359 60.4024 22.3567C62.6063 27.6775 63.1829 33.5323 62.0593 39.1808C60.9358 44.8293 58.1625 50.0178 54.0901 54.0902C50.0178 58.1626 44.8293 60.9358 39.1808 62.0594C33.5323 63.183 27.6774 62.6063 22.3566 60.4024C17.0359 58.1984 12.4881 54.4662 9.28851 49.6776C6.08888 44.889 4.38104 39.2592 4.38104 33.5C4.38974 25.7799 7.46044 18.3784 12.9194 12.9195C18.3784 7.46048 25.7799 4.38979 33.5 4.38109ZM33.5 0C26.8743 0 20.3975 1.96477 14.8884 5.64579C9.37936 9.32682 5.08555 14.5588 2.55002 20.6801C0.0144819 26.8014 -0.648885 33.5372 0.64372 40.0355C1.93632 46.5339 5.12689 52.503 9.81195 57.1881C14.497 61.8732 20.4661 65.0637 26.9645 66.3563C33.4629 67.6489 40.1985 66.9855 46.3199 64.45C52.4412 61.9144 57.6732 57.6207 61.3542 52.1116C65.0352 46.6026 67 40.1257 67 33.5C67 24.6152 63.4706 16.0944 57.1881 9.81193C50.9056 3.52946 42.3848 0 33.5 0Z" fill="#FA4234"/>
</svg>
