<svg width="65" height="65" viewBox="0 0 65 65" fill="none" xmlns="http://www.w3.org/2000/svg">
<g clip-path="url(#clip0_6_136)">
<path d="M29.7917 59.5833C13.3656 59.5833 0 46.2177 0 29.7917C0 13.3656 13.3656 0 29.7917 0C46.2177 0 59.5833 13.3656 59.5833 29.7917C59.5833 46.2177 46.2177 59.5833 29.7917 59.5833ZM29.7917 5.41667C16.3529 5.41667 5.41667 16.3502 5.41667 29.7917C5.41667 43.2331 16.3529 54.1667 29.7917 54.1667C43.2304 54.1667 54.1667 43.2331 54.1667 29.7917C54.1667 16.3502 43.2304 5.41667 29.7917 5.41667Z" fill="black"/>
<path d="M62.2916 65C61.9359 65.0004 61.5837 64.9304 61.2551 64.7943C60.9265 64.6581 60.628 64.4583 60.3768 64.2065L47.3904 51.22C46.8826 50.7118 46.5974 50.0227 46.5977 49.3043C46.5979 48.5858 46.8836 47.8969 47.3917 47.3891C47.8999 46.8812 48.5891 46.5961 49.3075 46.5963C50.0259 46.5966 50.7148 46.8822 51.2227 47.3904L64.2064 60.3769C64.5864 60.7551 64.8454 61.2378 64.9506 61.7635C65.0559 62.2892 65.0025 62.8344 64.7973 63.3297C64.5922 63.825 64.2445 64.2483 63.7983 64.5457C63.3522 64.843 62.8278 65.0012 62.2916 65Z" fill="black"/>
</g>
<defs>
<clipPath id="clip0_6_136">
<rect width="65" height="65" fill="white"/>
</clipPath>
</defs>
</svg>
